<?xml version="1.0" standalone="no"?>
<!DOCTYPE svg PUBLIC "-//W3C//DTD SVG 20010904//EN"
 "http://www.w3.org/TR/2001/REC-SVG-20010904/DTD/svg10.dtd">
<svg version="1.0" xmlns="http://www.w3.org/2000/svg"
 width="384.000000pt" height="384.000000pt" viewBox="0 0 384.000000 384.000000"
 preserveAspectRatio="xMidYMid meet">
<metadata>
Created by potrace 1.11, written by Peter Selinger 2001-2013
</metadata>
<g transform="translate(0.000000,384.000000) scale(0.100000,-0.100000)"
fill="#000000" stroke="none">
<path d="M3475 3160 c-3 -5 -25 -10 -48 -10 -87 0 -106 -84 -29 -127 13 -8 58
-13 109 -13 49 0 93 -4 99 -8 22 -14 64 -104 64 -135 0 -18 5 -38 11 -44 11
-11 8 -96 -8 -273 -6 -62 -12 -84 -21 -82 -9 1 -11 -2 -6 -10 10 -16 5 -90 -7
-103 -5 -5 -9 -24 -9 -43 0 -28 -3 -33 -17 -27 -13 4 -15 3 -7 -5 16 -16 5
-63 -14 -55 -11 4 -12 2 -4 -8 8 -10 7 -20 -3 -41 -8 -16 -15 -35 -15 -42 0
-8 -4 -14 -10 -14 -5 0 -10 -9 -10 -20 0 -11 -5 -20 -12 -20 -6 0 -8 -3 -5 -6
8 -8 -56 -133 -82 -160 -9 -11 -18 -23 -19 -29 -6 -28 -14 -45 -22 -45 -5 0
-17 -16 -26 -35 -9 -20 -25 -40 -35 -46 -11 -5 -19 -16 -19 -24 0 -8 -4 -15
-8 -15 -4 0 -16 -14 -26 -31 -13 -22 -24 -29 -37 -26 -11 3 -16 1 -13 -5 4 -5
-22 -39 -57 -74 -61 -62 -65 -64 -114 -64 -49 0 -105 17 -105 33 0 4 -5 7 -11
7 -16 0 -99 91 -99 109 0 14 -2 14 -10 1 -8 -12 -10 -10 -10 10 0 20 -2 22
-10 10 -8 -12 -10 -10 -10 8 0 13 -4 20 -10 17 -5 -3 -10 1 -10 9 0 9 -4 16
-10 16 -5 0 -10 9 -10 21 0 11 -4 17 -10 14 -5 -3 -10 2 -10 12 0 15 -2 16
-10 3 -8 -12 -10 -10 -10 8 0 13 -4 20 -10 17 -6 -4 -10 5 -10 20 0 15 -4 24
-10 20 -5 -3 -10 2 -10 12 0 15 -2 16 -10 3 -8 -12 -10 -9 -10 13 0 16 -4 26
-10 22 -6 -3 -10 4 -10 17 0 18 -2 20 -10 8 -8 -12 -10 -9 -10 13 0 15 -4 27
-10 27 -5 0 -10 9 -10 21 0 11 -4 17 -10 14 -5 -3 -10 3 -10 14 0 12 -4 21
-10 21 -5 0 -10 9 -10 20 0 11 -4 20 -10 20 -5 0 -10 9 -10 20 0 11 -4 20 -10
20 -5 0 -10 11 -10 25 0 14 -4 25 -10 25 -5 0 -10 11 -10 25 0 14 -4 25 -10
25 -5 0 -10 16 -10 35 0 19 -4 35 -10 35 -5 0 -10 16 -10 35 0 19 -4 35 -10
35 -5 0 -10 18 -10 40 0 22 -4 40 -10 40 -6 0 -10 27 -10 60 0 33 -4 60 -10
60 -6 0 -10 45 -10 115 0 70 4 115 10 115 6 0 10 18 10 40 0 22 5 40 10 40 6
0 10 10 10 21 0 45 34 59 144 60 56 1 104 1 109 0 4 0 7 6 7 15 0 8 4 13 9 10
5 -4 11 18 13 47 3 47 1 53 -14 49 -10 -2 -18 1 -18 7 0 7 -41 11 -129 11
-103 0 -131 -3 -141 -15 -7 -9 -15 -13 -18 -11 -6 7 -29 -18 -60 -62 -33 -48
-62 -128 -62 -169 0 -18 -5 -33 -11 -33 -22 0 -1 -300 30 -425 6 -22 10 -40
10 -40 0 0 2 -7 4 -15 26 -83 40 -139 41 -162 1 -14 4 -24 7 -22 11 6 30 -43
33 -83 0 -11 4 -19 8 -17 4 3 26 -33 49 -81 23 -47 46 -85 51 -85 4 0 8 -8 8
-18 0 -10 9 -24 20 -32 12 -9 20 -27 21 -45 0 -16 3 -24 6 -18 7 18 33 -9 33
-34 0 -15 2 -16 10 -3 8 12 10 11 10 -7 0 -13 5 -23 10 -23 6 0 10 -7 10 -16
0 -8 5 -12 10 -9 6 3 10 -1 10 -10 0 -9 5 -13 10 -10 6 3 10 -3 10 -15 0 -12
5 -18 10 -15 6 3 10 -3 10 -15 0 -12 5 -18 10 -15 6 3 10 -1 10 -10 0 -10 5
-13 12 -9 8 5 9 0 5 -17 -6 -23 -5 -23 8 -5 15 19 15 19 15 -3 0 -12 4 -19 10
-16 6 3 10 -1 10 -10 0 -9 5 -13 10 -10 6 3 10 -1 10 -10 0 -9 5 -13 10 -10 6
3 10 -1 10 -10 0 -9 5 -13 10 -10 6 3 13 -1 16 -9 3 -9 12 -16 20 -16 8 0 14
-4 14 -10 0 -5 7 -10 15 -10 8 0 15 -4 15 -10 0 -5 12 -10 26 -10 51 0 63 -32
64 -162 0 -72 -4 -118 -10 -118 -5 0 -10 -5 -10 -11 0 -14 -26 -39 -40 -39 -6
0 -9 -3 -7 -8 5 -7 -17 -33 -28 -32 -39 1 -55 -2 -50 -10 4 -6 -13 -10 -45
-10 -32 0 -49 -4 -45 -10 4 -7 -115 -10 -349 -10 -231 0 -356 -4 -356 -10 0
-6 -32 -10 -76 -10 -47 0 -73 -4 -69 -10 4 -6 -17 -10 -57 -10 -44 0 -59 -3
-48 -10 11 -7 0 -10 -38 -10 -29 0 -51 -4 -48 -9 6 -9 -70 -21 -146 -23 -21
-1 -35 -5 -32 -10 4 -7 -135 -14 -175 -9 -7 2 -10 -2 -6 -8 4 -8 -24 -11 -90
-11 -62 0 -94 -4 -90 -10 4 -6 -42 -10 -130 -10 -88 0 -134 4 -130 10 4 6 -5
10 -20 10 -15 0 -24 4 -20 10 3 5 -1 10 -10 10 -22 0 -45 24 -45 47 0 15 -2
16 -10 3 -8 -12 -10 -9 -10 13 0 16 -4 26 -10 22 -6 -4 -10 43 -10 134 0 117
2 139 14 135 11 -4 13 0 9 15 -5 19 -1 21 51 21 31 0 56 5 56 10 0 6 7 10 15
10 24 0 95 24 95 32 0 5 11 8 25 8 14 0 25 4 25 10 0 5 12 16 27 24 16 8 43
29 61 46 17 17 32 28 32 23 0 -4 8 4 17 17 10 14 30 39 44 55 71 79 118 177
142 300 15 77 20 276 8 288 -6 6 -11 27 -11 47 0 20 -4 40 -10 46 -5 5 -11 22
-12 37 -1 15 -6 27 -10 27 -4 0 -8 9 -8 19 0 11 -4 23 -10 26 -5 3 -10 14 -10
25 0 10 -7 21 -16 24 -9 4 -14 9 -11 12 6 6 -2 18 -41 59 -13 14 -20 25 -16
25 4 0 -3 8 -14 19 -12 10 -22 21 -22 25 0 3 -9 15 -20 26 -11 11 -20 16 -20
10 0 -5 -16 6 -37 25 -20 19 -40 32 -45 29 -7 -4 -12 8 -10 27 1 3 -9 5 -21 5
-12 -1 -21 4 -20 11 2 7 -4 10 -13 6 -14 -5 -33 1 -86 28 -10 5 -33 9 -52 9
-19 0 -38 5 -41 10 -4 6 -67 10 -155 10 -88 0 -151 -4 -155 -10 -3 -5 -19 -10
-36 -10 -16 0 -37 -4 -47 -9 -53 -27 -72 -33 -87 -27 -9 3 -13 2 -10 -4 3 -6
-5 -14 -19 -20 -14 -5 -26 -14 -26 -20 0 -6 -4 -9 -8 -6 -5 3 -25 -10 -45 -29
-21 -19 -39 -35 -42 -35 -3 0 -17 -11 -31 -25 -14 -14 -22 -25 -19 -25 4 0 -8
-15 -27 -33 -19 -18 -40 -47 -47 -65 -7 -17 -18 -32 -23 -32 -5 0 -7 -4 -3 -9
3 -5 0 -15 -7 -23 -7 -7 -15 -22 -16 -33 -2 -11 -8 -24 -13 -29 -5 -6 -9 -23
-9 -38 0 -15 -4 -28 -8 -28 -5 0 -10 -26 -11 -57 -1 -32 -6 -60 -11 -63 -14
-9 3 -264 20 -285 4 -5 10 -23 14 -40 11 -46 59 -149 73 -158 7 -4 13 -13 13
-20 0 -23 164 -180 199 -192 12 -3 21 -11 21 -16 0 -6 4 -8 9 -4 5 3 15 0 23
-7 7 -7 22 -15 33 -16 11 -2 22 -8 23 -13 2 -5 17 -9 32 -9 16 0 32 -4 35 -10
3 -5 26 -10 51 -10 45 0 74 -16 74 -42 0 -10 3 -9 10 2 6 10 10 -39 10 -147 0
-102 4 -163 10 -163 6 0 10 -12 10 -26 0 -14 4 -23 10 -19 6 4 10 -5 10 -20 0
-15 4 -24 10 -20 6 3 10 1 10 -5 0 -6 11 -22 25 -35 13 -14 29 -25 35 -25 6 0
8 -4 5 -10 -3 -5 3 -10 14 -10 12 0 21 -4 21 -10 0 -5 10 -10 23 -10 18 0 19
-2 7 -10 -11 -7 -3 -10 30 -11 34 0 40 -2 25 -9 -12 -5 58 -8 175 -8 110 0
180 4 160 8 -23 5 8 8 95 10 87 2 118 5 95 10 -22 5 21 8 113 9 121 1 149 4
153 16 4 10 20 15 46 15 26 0 37 4 32 11 -4 8 9 10 45 8 43 -3 49 -2 34 9 -14
10 -5 12 53 12 48 0 64 3 54 10 -10 7 16 10 85 11 71 1 90 4 65 9 -19 4 141 8
355 10 215 1 379 6 365 10 -18 6 -4 9 50 10 57 2 69 4 50 11 -21 7 -19 8 13 6
29 -2 36 0 32 11 -4 11 1 13 19 10 17 -4 23 -1 19 9 -3 7 2 13 12 13 9 0 13 4
10 10 -3 6 1 10 10 10 9 0 13 5 10 10 -3 6 1 10 10 10 9 0 13 5 10 10 -3 6 1
10 10 10 9 0 13 5 10 10 -3 6 1 10 10 10 9 0 13 5 10 10 -3 6 -2 10 3 10 23 0
42 95 42 211 0 119 5 153 21 143 5 -3 9 2 9 10 0 14 14 22 23 14 4 -4 182 174
193 193 5 9 25 35 44 58 66 80 85 106 109 151 14 25 27 47 31 50 3 3 26 46 51
95 24 50 47 92 52 93 4 2 7 12 7 22 0 10 5 22 10 25 6 3 10 15 10 26 0 10 4
19 10 19 5 0 9 3 9 8 -4 24 2 52 11 47 6 -4 10 8 10 29 0 20 5 36 10 36 6 0
10 18 10 40 0 22 5 40 10 40 6 0 10 23 10 50 0 28 5 50 10 50 6 0 10 37 10 90
0 53 4 90 10 90 6 0 10 45 10 115 0 70 -4 115 -10 115 -5 0 -10 23 -10 50 0
28 -4 50 -10 50 -5 0 -10 7 -10 15 0 55 -117 195 -163 195 -14 0 -29 5 -32 10
-3 6 -30 10 -60 10 -30 0 -57 -4 -60 -10z m-2685 -690 c0 -5 18 -10 40 -10 22
0 40 -4 40 -10 0 -5 9 -10 20 -10 11 0 20 -4 20 -10 0 -5 8 -10 18 -10 10 0
24 -9 32 -20 8 -11 20 -20 27 -20 16 0 103 -85 103 -100 0 -5 5 -10 10 -10 6
0 10 -5 10 -11 0 -6 7 -17 15 -26 8 -8 13 -19 10 -24 -4 -5 -1 -9 4 -9 6 0 11
-9 11 -20 0 -11 5 -20 10 -20 6 0 10 -16 10 -35 0 -19 5 -35 10 -35 6 0 10
-48 10 -125 0 -77 -4 -125 -10 -125 -5 0 -10 -16 -10 -35 0 -19 -4 -35 -10
-35 -5 0 -10 -7 -10 -15 0 -19 -20 -55 -42 -76 -10 -9 -18 -24 -18 -33 0 -9
-4 -16 -10 -16 -5 0 -10 -7 -10 -15 0 -8 -4 -15 -10 -15 -5 0 -19 -10 -32 -22
-13 -13 -36 -30 -53 -38 -16 -8 -32 -17 -35 -20 -13 -13 -52 -30 -69 -30 -11
0 -23 -4 -26 -10 -4 -6 -58 -10 -130 -10 -72 0 -126 4 -130 10 -3 6 -15 10
-26 10 -17 0 -56 17 -69 30 -3 3 -17 11 -32 17 -16 7 -28 17 -28 23 0 5 -5 10
-10 10 -15 0 -80 67 -80 82 0 8 -9 20 -20 28 -11 8 -20 22 -20 32 0 10 -4 18
-10 18 -5 0 -10 11 -10 25 0 14 -4 25 -10 25 -5 0 -10 16 -10 35 0 19 -4 35
-10 35 -6 0 -10 45 -10 115 0 70 4 115 10 115 6 0 10 18 10 40 0 22 5 40 10
40 6 0 10 9 10 20 0 11 5 20 11 20 5 0 8 4 4 9 -3 5 1 16 9 24 8 8 12 17 9 21
-3 3 2 8 11 12 9 3 16 11 16 16 0 6 14 23 30 38 20 19 26 30 18 33 -7 3 -4 6
7 6 11 1 27 10 35 21 8 11 23 20 33 20 10 0 15 5 12 10 -4 6 5 10 20 10 15 0
24 4 20 10 -4 6 5 10 19 10 14 0 26 5 26 10 0 6 18 10 40 10 22 0 40 5 40 10
0 6 32 10 75 10 43 0 75 -4 75 -10z m868 -1727 c-15 -2 -42 -2 -60 0 -18 2 -6
4 27 4 33 0 48 -2 33 -4z"/>
<path d="M2751 3014 c0 -11 3 -14 6 -6 3 7 2 16 -1 19 -3 4 -6 -2 -5 -13z"/>
</g>
</svg>
